<svg xmlns="http://www.w3.org/2000/svg" xmlns:xlink="http://www.w3.org/1999/xlink" width="1000" zoomAndPan="magnify" viewBox="0 0 750 149.999998" height="200" preserveAspectRatio="xMidYMid meet" version="1.0"><defs><g/><clipPath id="9b2b85f647"><rect x="0" width="155" y="0" height="123"/></clipPath><clipPath id="e8b7356f30"><rect x="0" width="427" y="0" height="87"/></clipPath></defs><g transform="matrix(1, 0, 0, 1, 78, 20)"><g clip-path="url(#9b2b85f647)"><g fill="#ffffff" fill-opacity="1"><g transform="translate(1.605332, 93.368478)"><g><path d="M 0 0 C 1.851562 -1.550781 3.34375 -3.90625 4.46875 -7.0625 C 5.601562 -10.226562 6.738281 -13.664062 7.875 -17.375 C 9.664062 -23.457031 11.234375 -29.003906 12.578125 -34.015625 C 13.921875 -39.035156 15.113281 -43.914062 16.15625 -48.65625 C 17.207031 -53.40625 18.222656 -58.347656 19.203125 -63.484375 C 20.191406 -68.617188 21.253906 -74.289062 22.390625 -80.5 C 22.679688 -82.226562 22.675781 -83.925781 22.375 -85.59375 C 22.082031 -87.269531 21.429688 -88.585938 20.421875 -89.546875 L 60.09375 -89.546875 C 59.132812 -88.585938 58.488281 -87.269531 58.15625 -85.59375 C 57.832031 -83.925781 57.816406 -82.226562 58.109375 -80.5 C 59.242188 -74.289062 60.300781 -68.617188 61.28125 -63.484375 C 62.269531 -58.347656 63.285156 -53.40625 64.328125 -48.65625 C 65.378906 -43.914062 66.578125 -39.035156 67.921875 -34.015625 C 69.265625 -29.003906 70.832031 -23.457031 72.625 -17.375 C 73.757812 -13.664062 74.894531 -10.226562 76.03125 -7.0625 C 77.164062 -3.90625 78.65625 -1.550781 80.5 0 L 43.515625 0 C 44.535156 -1.195312 45.328125 -2.660156 45.890625 -4.390625 C 46.460938 -6.117188 46.75 -7.910156 46.75 -9.765625 C 46.75 -11.253906 46.476562 -14.023438 45.9375 -18.078125 C 45.394531 -22.140625 44.675781 -26.710938 43.78125 -31.796875 L 30.625 -31.796875 C 32.175781 -28.023438 33.59375 -24.289062 34.875 -20.59375 C 36.15625 -16.894531 36.796875 -13.191406 36.796875 -9.484375 C 36.796875 -8.117188 36.617188 -6.6875 36.265625 -5.1875 C 35.910156 -3.695312 35.269531 -2.457031 34.34375 -1.46875 C 33.414062 -0.488281 32.054688 0 30.265625 0 Z M 28.921875 -35.8125 L 42.984375 -35.8125 C 42.148438 -40.113281 41.222656 -44.398438 40.203125 -48.671875 C 39.191406 -52.941406 38.101562 -56.835938 36.9375 -60.359375 C 35.769531 -63.878906 34.570312 -66.695312 33.34375 -68.8125 C 32.125 -70.9375 30.890625 -72 29.640625 -72 C 28.085938 -72 26.863281 -71.34375 25.96875 -70.03125 C 25.070312 -68.71875 24.429688 -67 24.046875 -64.875 C 23.660156 -62.757812 23.46875 -60.503906 23.46875 -58.109375 C 23.46875 -54.171875 24.019531 -50.351562 25.125 -46.65625 C 26.226562 -42.957031 27.492188 -39.34375 28.921875 -35.8125 Z M 28.921875 -35.8125 "/></g></g></g><g fill="#ffffff" fill-opacity="1"><g transform="translate(73.141723, 93.368478)"><g><path d="M 0 -89.546875 L 36.984375 -89.546875 C 35.960938 -88.410156 35.171875 -86.960938 34.609375 -85.203125 C 34.046875 -83.441406 33.765625 -81.632812 33.765625 -79.78125 C 33.765625 -78.644531 33.925781 -76.675781 34.25 -73.875 C 34.582031 -71.070312 35.0625 -67.757812 35.6875 -63.9375 C 36.3125 -60.113281 37.039062 -56.097656 37.875 -51.890625 C 38.707031 -47.679688 39.617188 -43.546875 40.609375 -39.484375 C 41.597656 -35.429688 42.65625 -31.75 43.78125 -28.4375 C 44.914062 -25.125 46.082031 -22.476562 47.28125 -20.5 C 48.476562 -18.53125 49.671875 -17.546875 50.859375 -17.546875 C 52.410156 -17.546875 53.632812 -18.203125 54.53125 -19.515625 C 55.425781 -20.828125 56.066406 -22.539062 56.453125 -24.65625 C 56.847656 -26.78125 57.046875 -29.039062 57.046875 -31.4375 C 57.046875 -35.007812 56.597656 -38.5 55.703125 -41.90625 C 54.804688 -45.3125 53.703125 -48.625 52.390625 -51.84375 C 51.078125 -55.070312 49.75 -58.25 48.40625 -61.375 C 47.0625 -64.507812 45.941406 -67.628906 45.046875 -70.734375 C 44.148438 -73.847656 43.703125 -76.957031 43.703125 -80.0625 C 43.703125 -81.488281 43.878906 -82.929688 44.234375 -84.390625 C 44.597656 -85.859375 45.253906 -87.082031 46.203125 -88.0625 C 47.160156 -89.050781 48.503906 -89.546875 50.234375 -89.546875 L 80.5 -89.546875 C 78.65625 -88.054688 77.164062 -85.710938 76.03125 -82.515625 C 74.894531 -79.328125 73.757812 -75.878906 72.625 -72.171875 C 70.832031 -66.085938 69.265625 -60.535156 67.921875 -55.515625 C 66.578125 -50.503906 65.378906 -45.625 64.328125 -40.875 C 63.285156 -36.132812 62.269531 -31.195312 61.28125 -26.0625 C 60.300781 -20.925781 59.242188 -15.253906 58.109375 -9.046875 C 57.816406 -7.316406 57.832031 -5.613281 58.15625 -3.9375 C 58.488281 -2.269531 59.132812 -0.957031 60.09375 0 L 20.421875 0 C 21.429688 -0.957031 22.082031 -2.269531 22.375 -3.9375 C 22.675781 -5.613281 22.679688 -7.316406 22.390625 -9.046875 C 21.253906 -15.253906 20.191406 -20.925781 19.203125 -26.0625 C 18.222656 -31.195312 17.207031 -36.132812 16.15625 -40.875 C 15.113281 -45.625 13.921875 -50.503906 12.578125 -55.515625 C 11.234375 -60.535156 9.664062 -66.085938 7.875 -72.171875 C 6.738281 -75.878906 5.601562 -79.328125 4.46875 -82.515625 C 3.34375 -85.710938 1.851562 -88.054688 0 -89.546875 Z M 0 -89.546875 "/></g></g></g></g></g><g transform="matrix(1, 0, 0, 1, 251, 30)"><g clip-path="url(#e8b7356f30)"><g fill="#ffffff" fill-opacity="1"><g transform="translate(0.50338, 64.899542)"><g><path d="M 1.953125 0 L 18.8125 -45.734375 L 24.625 -45.734375 L 41.421875 0 L 35.609375 0 L 31.421875 -11.765625 L 11.953125 -11.765625 L 7.703125 0 Z M 13.59375 -16.203125 L 29.796875 -16.203125 L 21.6875 -38.8125 Z M 13.59375 -16.203125 "/></g></g></g><g fill="#ffffff" fill-opacity="1"><g transform="translate(31.007688, 64.899542)"><g><path d="M 18.625 0 L 1.4375 -45.734375 L 7.375 -45.734375 L 21.8125 -5.8125 L 36.390625 -45.734375 L 42.203125 -45.734375 L 25.015625 0 Z M 18.625 0 "/></g></g></g><g fill="#ffffff" fill-opacity="1"><g transform="translate(68.110283, 64.899542)"><g><path d="M 4.828125 0 L 4.828125 -45.734375 L 33.125 -45.734375 L 33.125 -41.21875 L 10.328125 -41.21875 L 10.328125 -25.28125 L 31.15625 -25.28125 L 31.15625 -20.84375 L 10.328125 -20.84375 L 10.328125 -4.5 L 33.125 -4.5 L 33.125 0 Z M 4.828125 0 "/></g></g></g><g fill="#ffffff" fill-opacity="1"><g transform="translate(98.419193, 64.899542)"><g><path d="M 4.828125 0 L 4.828125 -45.734375 L 10.328125 -45.734375 L 10.328125 -4.375 L 31.625 -4.375 L 31.625 0 Z M 4.828125 0 "/></g></g></g><g fill="#ffffff" fill-opacity="1"><g transform="translate(126.180454, 64.899542)"><g><path d="M 4.828125 0 L 4.828125 -45.734375 L 10.328125 -45.734375 L 10.328125 0 Z M 4.828125 0 "/></g></g></g><g fill="#ffffff" fill-opacity="1"><g transform="translate(134.801747, 64.899542)"><g><path d="M 25.609375 0.78125 C 21.117188 0.78125 17.1875 -0.207031 13.8125 -2.1875 C 10.4375 -4.164062 7.800781 -6.941406 5.90625 -10.515625 C 4.019531 -14.085938 3.078125 -18.203125 3.078125 -22.859375 C 3.078125 -27.523438 4.019531 -31.628906 5.90625 -35.171875 C 7.800781 -38.722656 10.4375 -41.5 13.8125 -43.5 C 17.1875 -45.507812 21.117188 -46.515625 25.609375 -46.515625 C 30.140625 -46.515625 34.09375 -45.507812 37.46875 -43.5 C 40.84375 -41.5 43.460938 -38.722656 45.328125 -35.171875 C 47.203125 -31.628906 48.140625 -27.523438 48.140625 -22.859375 C 48.140625 -18.203125 47.203125 -14.085938 45.328125 -10.515625 C 43.460938 -6.941406 40.84375 -4.164062 37.46875 -2.1875 C 34.09375 -0.207031 30.140625 0.78125 25.609375 0.78125 Z M 25.609375 -4.046875 C 28.960938 -4.046875 31.910156 -4.796875 34.453125 -6.296875 C 37.003906 -7.804688 38.988281 -9.960938 40.40625 -12.765625 C 41.820312 -15.578125 42.53125 -18.941406 42.53125 -22.859375 C 42.53125 -26.785156 41.820312 -30.140625 40.40625 -32.921875 C 38.988281 -35.710938 37.003906 -37.859375 34.453125 -39.359375 C 31.910156 -40.859375 28.960938 -41.609375 25.609375 -41.609375 C 22.253906 -41.609375 19.300781 -40.859375 16.75 -39.359375 C 14.207031 -37.859375 12.226562 -35.710938 10.8125 -32.921875 C 9.394531 -30.140625 8.6875 -26.785156 8.6875 -22.859375 C 8.6875 -18.941406 9.394531 -15.578125 10.8125 -12.765625 C 12.226562 -9.960938 14.207031 -7.804688 16.75 -6.296875 C 19.300781 -4.796875 22.253906 -4.046875 25.609375 -4.046875 Z M 25.609375 -4.046875 "/></g></g></g><g fill="#ffffff" fill-opacity="1"><g transform="translate(179.481955, 64.899542)"><g><path d="M 4.828125 0 L 4.828125 -45.734375 L 10.328125 -45.734375 L 34.6875 -9.078125 L 34.6875 -45.734375 L 40.171875 -45.734375 L 40.171875 0 L 34.6875 0 L 10.328125 -36.65625 L 10.328125 0 Z M 4.828125 0 "/></g></g></g><g fill="#ffffff" fill-opacity="1"><g transform="translate(217.9564, 64.899542)"><g/></g></g><g fill="#ffffff" fill-opacity="1"><g transform="translate(228.733378, 64.899542)"><g><path d="M 4.828125 0 L 4.828125 -45.734375 L 18.875 -45.734375 C 26.9375 -45.734375 32.867188 -43.6875 36.671875 -39.59375 C 40.484375 -35.5 42.390625 -29.878906 42.390625 -22.734375 C 42.390625 -15.722656 40.484375 -10.179688 36.671875 -6.109375 C 32.867188 -2.035156 26.9375 0 18.875 0 Z M 10.328125 -4.578125 L 18.75 -4.578125 C 23.1875 -4.578125 26.722656 -5.304688 29.359375 -6.765625 C 31.992188 -8.222656 33.878906 -10.3125 35.015625 -13.03125 C 36.148438 -15.75 36.71875 -18.984375 36.71875 -22.734375 C 36.71875 -26.566406 36.148438 -29.851562 35.015625 -32.59375 C 33.878906 -35.34375 31.992188 -37.457031 29.359375 -38.9375 C 26.722656 -40.414062 23.1875 -41.15625 18.75 -41.15625 L 10.328125 -41.15625 Z M 10.328125 -4.578125 "/></g></g></g><g fill="#ffffff" fill-opacity="1"><g transform="translate(267.665077, 64.899542)"><g><path d="M 4.828125 0 L 4.828125 -45.734375 L 10.328125 -45.734375 L 10.328125 0 Z M 4.828125 0 "/></g></g></g><g fill="#ffffff" fill-opacity="1"><g transform="translate(276.286369, 64.899542)"><g><path d="M 24.5 0.78125 C 20.226562 0.78125 16.476562 -0.207031 13.25 -2.1875 C 10.03125 -4.164062 7.53125 -6.929688 5.75 -10.484375 C 3.96875 -14.035156 3.078125 -18.140625 3.078125 -22.796875 C 3.078125 -27.460938 3.976562 -31.578125 5.78125 -35.140625 C 7.59375 -38.710938 10.160156 -41.5 13.484375 -43.5 C 16.816406 -45.507812 20.75 -46.515625 25.28125 -46.515625 C 30.414062 -46.515625 34.691406 -45.269531 38.109375 -42.78125 C 41.535156 -40.300781 43.75 -36.882812 44.75 -32.53125 L 38.40625 -32.53125 C 37.800781 -35.28125 36.351562 -37.457031 34.0625 -39.0625 C 31.78125 -40.675781 28.851562 -41.484375 25.28125 -41.484375 C 21.925781 -41.484375 19.003906 -40.726562 16.515625 -39.21875 C 14.035156 -37.71875 12.109375 -35.570312 10.734375 -32.78125 C 9.367188 -30 8.6875 -26.671875 8.6875 -22.796875 C 8.6875 -18.921875 9.359375 -15.585938 10.703125 -12.796875 C 12.054688 -10.015625 13.929688 -7.867188 16.328125 -6.359375 C 18.722656 -4.859375 21.507812 -4.109375 24.6875 -4.109375 C 29.570312 -4.109375 33.253906 -5.535156 35.734375 -8.390625 C 38.210938 -11.242188 39.628906 -15.15625 39.984375 -20.125 L 26.78125 -20.125 L 26.78125 -24.4375 L 45.59375 -24.4375 L 45.59375 0 L 40.5625 0 L 40.109375 -7.515625 C 38.453125 -4.859375 36.425781 -2.8125 34.03125 -1.375 C 31.632812 0.0625 28.457031 0.78125 24.5 0.78125 Z M 24.5 0.78125 "/></g></g></g><g fill="#ffffff" fill-opacity="1"><g transform="translate(319.202856, 64.899542)"><g><path d="M 4.828125 0 L 4.828125 -45.734375 L 10.328125 -45.734375 L 10.328125 0 Z M 4.828125 0 "/></g></g></g><g fill="#ffffff" fill-opacity="1"><g transform="translate(327.824149, 64.899542)"><g><path d="M 15.546875 0 L 15.546875 -41.21875 L 1.890625 -41.21875 L 1.890625 -45.734375 L 34.6875 -45.734375 L 34.6875 -41.21875 L 21.03125 -41.21875 L 21.03125 0 Z M 15.546875 0 "/></g></g></g><g fill="#ffffff" fill-opacity="1"><g transform="translate(352.710711, 64.899542)"><g><path d="M 1.953125 0 L 18.8125 -45.734375 L 24.625 -45.734375 L 41.421875 0 L 35.609375 0 L 31.421875 -11.765625 L 11.953125 -11.765625 L 7.703125 0 Z M 13.59375 -16.203125 L 29.796875 -16.203125 L 21.6875 -38.8125 Z M 13.59375 -16.203125 "/></g></g></g><g fill="#ffffff" fill-opacity="1"><g transform="translate(389.552012, 64.899542)"><g><path d="M 4.828125 0 L 4.828125 -45.734375 L 10.328125 -45.734375 L 10.328125 -4.375 L 31.625 -4.375 L 31.625 0 Z M 4.828125 0 "/></g></g></g></g></g></svg>