<svg xmlns="http://www.w3.org/2000/svg" xmlns:xlink="http://www.w3.org/1999/xlink" width="1000" zoomAndPan="magnify" viewBox="0 0 750 149.999998" height="200" preserveAspectRatio="xMidYMid meet" version="1.0"><defs><g/><clipPath id="529c18916f"><rect x="0" width="518" y="0" height="96"/></clipPath></defs><g fill="#ffffff" fill-opacity="1"><g transform="translate(42.571673, 116.933627)"><g><path d="M 0.859375 -85.828125 L 27.203125 -85.828125 C 32.410156 -85.828125 37.03125 -84.679688 41.0625 -82.390625 C 45.101562 -80.109375 48.582031 -77.035156 51.5 -73.171875 C 54.414062 -69.304688 56.800781 -65.023438 58.65625 -60.328125 C 60.519531 -55.640625 61.894531 -50.847656 62.78125 -45.953125 C 63.664062 -41.066406 64.109375 -36.445312 64.109375 -32.09375 C 64.109375 -25.75 63.507812 -20.488281 62.3125 -16.3125 C 61.113281 -12.132812 59.351562 -8.859375 57.03125 -6.484375 C 54.71875 -4.109375 51.914062 -2.429688 48.625 -1.453125 C 45.332031 -0.484375 41.566406 0 37.328125 0 L 0.859375 0 C 2.003906 -1.144531 2.789062 -2.503906 3.21875 -4.078125 C 3.644531 -5.648438 3.859375 -7.664062 3.859375 -10.125 L 3.859375 -75.703125 C 3.859375 -78.160156 3.644531 -80.175781 3.21875 -81.75 C 2.789062 -83.320312 2.003906 -84.679688 0.859375 -85.828125 Z M 33.046875 -80.9375 C 30.410156 -80.9375 28.601562 -79.347656 27.625 -76.171875 C 26.65625 -72.992188 26.171875 -67.628906 26.171875 -60.078125 C 26.171875 -59.796875 26.171875 -59.082031 26.171875 -57.9375 C 26.171875 -56.789062 26.171875 -55.429688 26.171875 -53.859375 C 26.171875 -52.285156 26.171875 -50.710938 26.171875 -49.140625 C 26.171875 -47.566406 26.171875 -46.207031 26.171875 -45.0625 C 26.171875 -43.914062 26.171875 -43.195312 26.171875 -42.90625 C 26.171875 -42.625 26.171875 -41.910156 26.171875 -40.765625 C 26.171875 -39.617188 26.171875 -38.257812 26.171875 -36.6875 C 26.171875 -35.113281 26.171875 -33.539062 26.171875 -31.96875 C 26.171875 -30.394531 26.171875 -29.035156 26.171875 -27.890625 C 26.171875 -26.742188 26.171875 -26.03125 26.171875 -25.75 C 26.171875 -18.195312 26.628906 -12.742188 27.546875 -9.390625 C 28.460938 -6.046875 30.125 -4.375 32.53125 -4.375 C 35.789062 -4.375 38.117188 -7.617188 39.515625 -14.109375 C 40.921875 -20.609375 41.625 -30.15625 41.625 -42.75 C 41.625 -46.0625 41.582031 -49.488281 41.5 -53.03125 C 41.414062 -56.582031 41.210938 -60.015625 40.890625 -63.328125 C 40.578125 -66.648438 40.101562 -69.628906 39.46875 -72.265625 C 38.84375 -74.898438 38.015625 -77.003906 36.984375 -78.578125 C 35.960938 -80.148438 34.648438 -80.9375 33.046875 -80.9375 Z M 33.046875 -80.9375 "/></g></g></g><g fill="#ffffff" fill-opacity="1"><g transform="translate(100.247809, 116.933627)"><g><path d="M 0 -85.828125 L 35.453125 -85.828125 C 34.472656 -84.742188 33.710938 -83.359375 33.171875 -81.671875 C 32.628906 -79.984375 32.359375 -78.25 32.359375 -76.46875 C 32.359375 -75.382812 32.515625 -73.5 32.828125 -70.8125 C 33.140625 -68.125 33.597656 -64.945312 34.203125 -61.28125 C 34.804688 -57.613281 35.503906 -53.765625 36.296875 -49.734375 C 37.097656 -45.703125 37.972656 -41.738281 38.921875 -37.84375 C 39.867188 -33.957031 40.882812 -30.425781 41.96875 -27.25 C 43.050781 -24.070312 44.164062 -21.539062 45.3125 -19.65625 C 46.457031 -17.769531 47.601562 -16.828125 48.75 -16.828125 C 50.238281 -16.828125 51.410156 -17.453125 52.265625 -18.703125 C 53.128906 -19.960938 53.742188 -21.609375 54.109375 -23.640625 C 54.484375 -25.671875 54.671875 -27.832031 54.671875 -30.125 C 54.671875 -33.5625 54.238281 -36.910156 53.375 -40.171875 C 52.519531 -43.429688 51.460938 -46.601562 50.203125 -49.6875 C 48.953125 -52.78125 47.679688 -55.828125 46.390625 -58.828125 C 45.097656 -61.835938 44.023438 -64.828125 43.171875 -67.796875 C 42.316406 -70.773438 41.890625 -73.753906 41.890625 -76.734375 C 41.890625 -78.109375 42.054688 -79.492188 42.390625 -80.890625 C 42.734375 -82.296875 43.363281 -83.46875 44.28125 -84.40625 C 45.195312 -85.351562 46.488281 -85.828125 48.15625 -85.828125 L 77.15625 -85.828125 C 75.382812 -84.398438 73.953125 -82.15625 72.859375 -79.09375 C 71.773438 -76.03125 70.691406 -72.722656 69.609375 -69.171875 C 67.890625 -63.335938 66.382812 -58.015625 65.09375 -53.203125 C 63.8125 -48.398438 62.671875 -43.722656 61.671875 -39.171875 C 60.671875 -34.628906 59.695312 -29.894531 58.75 -24.96875 C 57.800781 -20.050781 56.785156 -14.617188 55.703125 -8.671875 C 55.410156 -7.003906 55.421875 -5.367188 55.734375 -3.765625 C 56.054688 -2.171875 56.675781 -0.914062 57.59375 0 L 19.5625 0 C 20.539062 -0.914062 21.171875 -2.171875 21.453125 -3.765625 C 21.742188 -5.367188 21.742188 -7.003906 21.453125 -8.671875 C 20.367188 -14.617188 19.351562 -20.050781 18.40625 -24.96875 C 17.46875 -29.894531 16.492188 -34.628906 15.484375 -39.171875 C 14.484375 -43.722656 13.335938 -48.398438 12.046875 -53.203125 C 10.765625 -58.015625 9.265625 -63.335938 7.546875 -69.171875 C 6.460938 -72.722656 5.375 -76.03125 4.28125 -79.09375 C 3.195312 -82.15625 1.769531 -84.398438 0 -85.828125 Z M 0 -85.828125 "/></g></g></g><g transform="matrix(1, 0, 0, 1, 198, 30)"><g clip-path="url(#529c18916f)"><g fill="#ffffff" fill-opacity="1"><g transform="translate(0.958603, 71.442984)"><g><path d="M 5.359375 0 L 5.359375 -50.734375 L 20.953125 -50.734375 C 29.890625 -50.734375 36.472656 -48.460938 40.703125 -43.921875 C 44.929688 -39.378906 47.046875 -33.144531 47.046875 -25.21875 C 47.046875 -17.4375 44.929688 -11.285156 40.703125 -6.765625 C 36.472656 -2.253906 29.890625 0 20.953125 0 Z M 11.453125 -5.078125 L 20.796875 -5.078125 C 25.734375 -5.078125 29.660156 -5.882812 32.578125 -7.5 C 35.503906 -9.125 37.59375 -11.441406 38.84375 -14.453125 C 40.101562 -17.472656 40.734375 -21.0625 40.734375 -25.21875 C 40.734375 -29.476562 40.101562 -33.128906 38.84375 -36.171875 C 37.59375 -39.210938 35.503906 -41.554688 32.578125 -43.203125 C 29.660156 -44.847656 25.734375 -45.671875 20.796875 -45.671875 L 11.453125 -45.671875 Z M 11.453125 -5.078125 "/></g></g></g><g fill="#ffffff" fill-opacity="1"><g transform="translate(40.532819, 71.442984)"><g><path d="M 2.171875 0 L 20.875 -50.734375 L 27.328125 -50.734375 L 45.953125 0 L 39.5 0 L 34.859375 -13.046875 L 13.265625 -13.046875 L 8.546875 0 Z M 15.078125 -17.96875 L 33.046875 -17.96875 L 24.0625 -43.0625 Z M 15.078125 -17.96875 "/></g></g></g><g fill="#ffffff" fill-opacity="1"><g transform="translate(74.380472, 71.442984)"><g><path d="M 20.65625 0 L 1.59375 -50.734375 L 8.1875 -50.734375 L 24.203125 -6.453125 L 40.375 -50.734375 L 46.828125 -50.734375 L 27.765625 0 Z M 20.65625 0 "/></g></g></g><g fill="#ffffff" fill-opacity="1"><g transform="translate(115.549601, 71.442984)"><g><path d="M 5.359375 0 L 5.359375 -50.734375 L 36.75 -50.734375 L 36.75 -45.734375 L 11.453125 -45.734375 L 11.453125 -28.046875 L 34.578125 -28.046875 L 34.578125 -23.125 L 11.453125 -23.125 L 11.453125 -5 L 36.75 -5 L 36.75 0 Z M 5.359375 0 "/></g></g></g><g fill="#ffffff" fill-opacity="1"><g transform="translate(149.18044, 71.442984)"><g><path d="M 5.359375 0 L 5.359375 -50.734375 L 21.75 -50.734375 C 25.707031 -50.734375 28.941406 -50.082031 31.453125 -48.78125 C 33.972656 -47.476562 35.835938 -45.691406 37.046875 -43.421875 C 38.253906 -41.148438 38.859375 -38.632812 38.859375 -35.875 C 38.859375 -32.6875 38 -29.8125 36.28125 -27.25 C 34.5625 -24.6875 31.890625 -22.875 28.265625 -21.8125 L 39.359375 0 L 32.1875 0 L 21.890625 -20.953125 L 11.453125 -20.953125 L 11.453125 0 Z M 11.453125 -25.734375 L 21.3125 -25.734375 C 25.226562 -25.734375 28.078125 -26.675781 29.859375 -28.5625 C 31.648438 -30.445312 32.546875 -32.863281 32.546875 -35.8125 C 32.546875 -38.800781 31.660156 -41.175781 29.890625 -42.9375 C 28.128906 -44.707031 25.242188 -45.59375 21.234375 -45.59375 L 11.453125 -45.59375 Z M 11.453125 -25.734375 "/></g></g></g><g fill="#ffffff" fill-opacity="1"><g transform="translate(184.913301, 71.442984)"><g><path d="M 5.359375 0 L 5.359375 -50.734375 L 11.453125 -50.734375 L 11.453125 0 Z M 5.359375 0 "/></g></g></g><g fill="#ffffff" fill-opacity="1"><g transform="translate(194.479508, 71.442984)"><g><path d="M 28.40625 0.875 C 23.4375 0.875 19.078125 -0.222656 15.328125 -2.421875 C 11.585938 -4.617188 8.664062 -7.695312 6.5625 -11.65625 C 4.457031 -15.625 3.40625 -20.195312 3.40625 -25.375 C 3.40625 -30.539062 4.457031 -35.09375 6.5625 -39.03125 C 8.664062 -42.96875 11.585938 -46.046875 15.328125 -48.265625 C 19.078125 -50.492188 23.4375 -51.609375 28.40625 -51.609375 C 33.4375 -51.609375 37.820312 -50.492188 41.5625 -48.265625 C 45.3125 -46.046875 48.222656 -42.96875 50.296875 -39.03125 C 52.378906 -35.09375 53.421875 -30.539062 53.421875 -25.375 C 53.421875 -20.195312 52.378906 -15.625 50.296875 -11.65625 C 48.222656 -7.695312 45.3125 -4.617188 41.5625 -2.421875 C 37.820312 -0.222656 33.4375 0.875 28.40625 0.875 Z M 28.40625 -4.5 C 32.132812 -4.5 35.410156 -5.332031 38.234375 -7 C 41.054688 -8.664062 43.253906 -11.054688 44.828125 -14.171875 C 46.398438 -17.285156 47.1875 -21.019531 47.1875 -25.375 C 47.1875 -29.71875 46.398438 -33.4375 44.828125 -36.53125 C 43.253906 -39.625 41.054688 -42.003906 38.234375 -43.671875 C 35.410156 -45.335938 32.132812 -46.171875 28.40625 -46.171875 C 24.6875 -46.171875 21.414062 -45.335938 18.59375 -43.671875 C 15.769531 -42.003906 13.570312 -39.625 12 -36.53125 C 10.425781 -33.4375 9.640625 -29.71875 9.640625 -25.375 C 9.640625 -21.019531 10.425781 -17.285156 12 -14.171875 C 13.570312 -11.054688 15.769531 -8.664062 18.59375 -7 C 21.414062 -5.332031 24.6875 -4.5 28.40625 -4.5 Z M 28.40625 -4.5 "/></g></g></g><g fill="#ffffff" fill-opacity="1"><g transform="translate(244.056774, 71.442984)"><g><path d="M 5.359375 0 L 5.359375 -50.734375 L 11.453125 -50.734375 L 38.484375 -10.078125 L 38.484375 -50.734375 L 44.578125 -50.734375 L 44.578125 0 L 38.484375 0 L 11.453125 -40.65625 L 11.453125 0 Z M 5.359375 0 "/></g></g></g><g fill="#ffffff" fill-opacity="1"><g transform="translate(286.748112, 71.442984)"><g/></g></g><g fill="#ffffff" fill-opacity="1"><g transform="translate(298.706272, 71.442984)"><g><path d="M 5.359375 0 L 5.359375 -50.734375 L 20.953125 -50.734375 C 29.890625 -50.734375 36.472656 -48.460938 40.703125 -43.921875 C 44.929688 -39.378906 47.046875 -33.144531 47.046875 -25.21875 C 47.046875 -17.4375 44.929688 -11.285156 40.703125 -6.765625 C 36.472656 -2.253906 29.890625 0 20.953125 0 Z M 11.453125 -5.078125 L 20.796875 -5.078125 C 25.734375 -5.078125 29.660156 -5.882812 32.578125 -7.5 C 35.503906 -9.125 37.59375 -11.441406 38.84375 -14.453125 C 40.101562 -17.472656 40.734375 -21.0625 40.734375 -25.21875 C 40.734375 -29.476562 40.101562 -33.128906 38.84375 -36.171875 C 37.59375 -39.210938 35.503906 -41.554688 32.578125 -43.203125 C 29.660156 -44.847656 25.734375 -45.671875 20.796875 -45.671875 L 11.453125 -45.671875 Z M 11.453125 -5.078125 "/></g></g></g><g fill="#ffffff" fill-opacity="1"><g transform="translate(341.904978, 71.442984)"><g><path d="M 5.359375 0 L 5.359375 -50.734375 L 11.453125 -50.734375 L 11.453125 0 Z M 5.359375 0 "/></g></g></g><g fill="#ffffff" fill-opacity="1"><g transform="translate(351.471185, 71.442984)"><g><path d="M 27.1875 0.875 C 22.445312 0.875 18.285156 -0.222656 14.703125 -2.421875 C 11.128906 -4.617188 8.351562 -7.6875 6.375 -11.625 C 4.394531 -15.570312 3.40625 -20.128906 3.40625 -25.296875 C 3.40625 -30.460938 4.40625 -35.023438 6.40625 -38.984375 C 8.414062 -42.953125 11.269531 -46.046875 14.96875 -48.265625 C 18.664062 -50.492188 23.023438 -51.609375 28.046875 -51.609375 C 33.753906 -51.609375 38.503906 -50.226562 42.296875 -47.46875 C 46.085938 -44.71875 48.539062 -40.925781 49.65625 -36.09375 L 42.625 -36.09375 C 41.945312 -39.132812 40.335938 -41.550781 37.796875 -43.34375 C 35.265625 -45.132812 32.015625 -46.03125 28.046875 -46.03125 C 24.328125 -46.03125 21.085938 -45.195312 18.328125 -43.53125 C 15.578125 -41.863281 13.441406 -39.484375 11.921875 -36.390625 C 10.398438 -33.296875 9.640625 -29.597656 9.640625 -25.296875 C 9.640625 -20.992188 10.390625 -17.296875 11.890625 -14.203125 C 13.390625 -11.109375 15.46875 -8.726562 18.125 -7.0625 C 20.78125 -5.394531 23.875 -4.5625 27.40625 -4.5625 C 32.8125 -4.5625 36.890625 -6.144531 39.640625 -9.3125 C 42.398438 -12.476562 43.972656 -16.816406 44.359375 -22.328125 L 29.71875 -22.328125 L 29.71875 -27.109375 L 50.59375 -27.109375 L 50.59375 0 L 45.015625 0 L 44.5 -8.328125 C 42.664062 -5.390625 40.421875 -3.117188 37.765625 -1.515625 C 35.109375 0.0742188 31.582031 0.875 27.1875 0.875 Z M 27.1875 0.875 "/></g></g></g><g fill="#ffffff" fill-opacity="1"><g transform="translate(399.091422, 71.442984)"><g><path d="M 5.359375 0 L 5.359375 -50.734375 L 11.453125 -50.734375 L 11.453125 0 Z M 5.359375 0 "/></g></g></g><g fill="#ffffff" fill-opacity="1"><g transform="translate(408.657629, 71.442984)"><g><path d="M 17.25 0 L 17.25 -45.734375 L 2.109375 -45.734375 L 2.109375 -50.734375 L 38.484375 -50.734375 L 38.484375 -45.734375 L 23.34375 -45.734375 L 23.34375 0 Z M 17.25 0 "/></g></g></g><g fill="#ffffff" fill-opacity="1"><g transform="translate(436.271818, 71.442984)"><g><path d="M 2.171875 0 L 20.875 -50.734375 L 27.328125 -50.734375 L 45.953125 0 L 39.5 0 L 34.859375 -13.046875 L 13.265625 -13.046875 L 8.546875 0 Z M 15.078125 -17.96875 L 33.046875 -17.96875 L 24.0625 -43.0625 Z M 15.078125 -17.96875 "/></g></g></g><g fill="#ffffff" fill-opacity="1"><g transform="translate(477.151014, 71.442984)"><g><path d="M 5.359375 0 L 5.359375 -50.734375 L 11.453125 -50.734375 L 11.453125 -4.859375 L 35.078125 -4.859375 L 35.078125 0 Z M 5.359375 0 "/></g></g></g></g></g></svg>