<svg xmlns="http://www.w3.org/2000/svg" xmlns:xlink="http://www.w3.org/1999/xlink" width="2000" zoomAndPan="magnify" viewBox="0 0 1500 1499.999933" height="2000" preserveAspectRatio="xMidYMid meet" version="1.0"><defs><g/><clipPath id="introMarkClip"><rect x="0" width="1085" y="0" height="863"/></clipPath></defs><g transform="matrix(1, 0, 0, 1, 205, 384)"><g clip-path="url(#introMarkClip)"><g fill="#000000" fill-opacity="1"><g transform="translate(8.282126, 657.90775)"><g><path d="M 0 0 C 13.0625 -10.957031 23.59375 -27.601562 31.59375 -49.9375 C 39.601562 -72.269531 47.613281 -96.5 55.625 -122.625 C 68.269531 -165.601562 79.332031 -204.789062 88.8125 -240.1875 C 98.289062 -275.59375 106.71875 -310.046875 114.09375 -343.546875 C 121.46875 -377.046875 128.628906 -411.914062 135.578125 -448.15625 C 142.535156 -484.394531 150.015625 -524.425781 158.015625 -568.25 C 160.128906 -580.46875 160.128906 -592.476562 158.015625 -604.28125 C 155.910156 -616.082031 151.28125 -625.351562 144.125 -632.09375 L 424.140625 -632.09375 C 417.390625 -625.351562 412.851562 -616.082031 410.53125 -604.28125 C 408.21875 -592.476562 408.117188 -580.46875 410.234375 -568.25 C 418.234375 -524.425781 425.707031 -484.394531 432.65625 -448.15625 C 439.613281 -411.914062 446.78125 -377.046875 454.15625 -343.546875 C 461.53125 -310.046875 469.957031 -275.59375 479.4375 -240.1875 C 488.925781 -204.789062 499.988281 -165.601562 512.625 -122.625 C 520.632812 -96.5 528.640625 -72.269531 536.640625 -49.9375 C 544.648438 -27.601562 555.1875 -10.957031 568.25 0 L 307.203125 0 C 314.359375 -8.425781 319.9375 -18.75 323.9375 -30.96875 C 327.945312 -43.1875 329.953125 -55.828125 329.953125 -68.890625 C 329.953125 -79.429688 328.054688 -99.03125 324.265625 -127.6875 C 320.472656 -156.34375 315.414062 -188.578125 309.09375 -224.390625 L 216.171875 -224.390625 C 227.128906 -197.847656 237.140625 -171.507812 246.203125 -145.375 C 255.265625 -119.25 259.796875 -93.125 259.796875 -67 C 259.796875 -57.3125 258.53125 -47.195312 256 -36.65625 C 253.46875 -26.125 248.9375 -17.378906 242.40625 -10.421875 C 235.875 -3.472656 226.285156 0 213.640625 0 Z M 204.171875 -252.84375 L 303.40625 -252.84375 C 297.507812 -283.175781 290.976562 -313.40625 283.8125 -343.53125 C 276.644531 -373.664062 268.953125 -401.164062 260.734375 -426.03125 C 252.515625 -450.894531 244.085938 -470.804688 235.453125 -485.765625 C 226.816406 -500.722656 218.070312 -508.203125 209.21875 -508.203125 C 198.257812 -508.203125 189.617188 -503.566406 183.296875 -494.296875 C 176.984375 -485.023438 172.457031 -472.910156 169.71875 -457.953125 C 166.976562 -442.992188 165.609375 -427.085938 165.609375 -410.234375 C 165.609375 -382.421875 169.503906 -355.445312 177.296875 -329.3125 C 185.097656 -303.1875 194.054688 -277.695312 204.171875 -252.84375 Z M 204.171875 -252.84375 "/></g></g></g><g fill="#000000" fill-opacity="1"><g transform="translate(513.208622, 657.90775)"><g><path d="M 0 -632.09375 L 261.046875 -632.09375 C 253.890625 -624.082031 248.304688 -613.863281 244.296875 -601.4375 C 240.296875 -589.007812 238.296875 -576.265625 238.296875 -563.203125 C 238.296875 -555.191406 239.453125 -541.28125 241.765625 -521.46875 C 244.085938 -501.664062 247.460938 -478.28125 251.890625 -451.3125 C 256.316406 -424.34375 261.476562 -396.003906 267.375 -366.296875 C 273.269531 -336.585938 279.691406 -307.40625 286.640625 -278.75 C 293.597656 -250.09375 301.082031 -224.070312 309.09375 -200.6875 C 317.101562 -177.300781 325.320312 -158.65625 333.75 -144.75 C 342.175781 -130.84375 350.601562 -123.890625 359.03125 -123.890625 C 369.988281 -123.890625 378.625 -128.523438 384.9375 -137.796875 C 391.257812 -147.066406 395.789062 -159.179688 398.53125 -174.140625 C 401.269531 -189.097656 402.640625 -205.003906 402.640625 -221.859375 C 402.640625 -247.148438 399.476562 -271.800781 393.15625 -295.8125 C 386.84375 -319.832031 379.050781 -343.21875 369.78125 -365.96875 C 360.507812 -388.726562 351.128906 -411.171875 341.640625 -433.296875 C 332.160156 -455.421875 324.257812 -477.4375 317.9375 -499.34375 C 311.625 -521.257812 308.46875 -543.175781 308.46875 -565.09375 C 308.46875 -575.207031 309.726562 -585.425781 312.25 -595.75 C 314.78125 -606.070312 319.414062 -614.707031 326.15625 -621.65625 C 332.90625 -628.613281 342.390625 -632.09375 354.609375 -632.09375 L 568.25 -632.09375 C 555.1875 -621.5625 544.648438 -605.019531 536.640625 -582.46875 C 528.640625 -559.925781 520.632812 -535.59375 512.625 -509.46875 C 499.988281 -466.488281 488.925781 -427.296875 479.4375 -391.890625 C 469.957031 -356.492188 461.53125 -322.046875 454.15625 -288.546875 C 446.78125 -255.046875 439.613281 -220.175781 432.65625 -183.9375 C 425.707031 -147.695312 418.234375 -107.664062 410.234375 -63.84375 C 408.117188 -51.625 408.21875 -39.613281 410.53125 -27.8125 C 412.851562 -16.007812 417.390625 -6.738281 424.140625 0 L 144.125 0 C 151.28125 -6.738281 155.910156 -16.007812 158.015625 -27.8125 C 160.128906 -39.613281 160.128906 -51.625 158.015625 -63.84375 C 150.015625 -107.664062 142.535156 -147.695312 135.578125 -183.9375 C 128.628906 -220.175781 121.46875 -255.046875 114.09375 -288.546875 C 106.71875 -322.046875 98.289062 -356.492188 88.8125 -391.890625 C 79.332031 -427.296875 68.269531 -466.488281 55.625 -509.46875 C 47.613281 -535.59375 39.601562 -559.925781 31.59375 -582.46875 C 23.59375 -605.019531 13.0625 -621.5625 0 -632.09375 Z M 0 -632.09375 "/></g></g></g></g></g></svg>
