<svg xmlns="http://www.w3.org/2000/svg" xmlns:xlink="http://www.w3.org/1999/xlink" width="1000" zoomAndPan="magnify" viewBox="0 0 750 149.999998" height="200" preserveAspectRatio="xMidYMid meet" version="1.0"><defs><g/><clipPath id="4bffe7002a"><rect x="0" width="149" y="0" height="118"/></clipPath><clipPath id="19cc5c3834"><rect x="0" width="473" y="0" height="96"/></clipPath></defs><g transform="matrix(1, 0, 0, 1, 49, 22)"><g clip-path="url(#4bffe7002a)"><g fill="#ffffff" fill-opacity="1"><g transform="translate(2.214824, 89.867452)"><g><path d="M 0 0 C 1.769531 -1.488281 3.195312 -3.75 4.28125 -6.78125 C 5.375 -9.8125 6.460938 -13.101562 7.546875 -16.65625 C 9.265625 -22.488281 10.765625 -27.804688 12.046875 -32.609375 C 13.335938 -37.421875 14.484375 -42.097656 15.484375 -46.640625 C 16.492188 -51.191406 17.46875 -55.925781 18.40625 -60.84375 C 19.351562 -65.769531 20.367188 -71.207031 21.453125 -77.15625 C 21.742188 -78.820312 21.742188 -80.453125 21.453125 -82.046875 C 21.171875 -83.648438 20.539062 -84.910156 19.5625 -85.828125 L 57.59375 -85.828125 C 56.675781 -84.910156 56.054688 -83.648438 55.734375 -82.046875 C 55.421875 -80.453125 55.410156 -78.820312 55.703125 -77.15625 C 56.785156 -71.207031 57.800781 -65.769531 58.75 -60.84375 C 59.695312 -55.925781 60.671875 -51.191406 61.671875 -46.640625 C 62.671875 -42.097656 63.8125 -37.421875 65.09375 -32.609375 C 66.382812 -27.804688 67.890625 -22.488281 69.609375 -16.65625 C 70.691406 -13.101562 71.773438 -9.8125 72.859375 -6.78125 C 73.953125 -3.75 75.382812 -1.488281 77.15625 0 L 41.71875 0 C 42.6875 -1.144531 43.441406 -2.546875 43.984375 -4.203125 C 44.523438 -5.859375 44.796875 -7.578125 44.796875 -9.359375 C 44.796875 -10.785156 44.535156 -13.441406 44.015625 -17.328125 C 43.503906 -21.222656 42.820312 -25.601562 41.96875 -30.46875 L 29.359375 -30.46875 C 30.835938 -26.863281 32.191406 -23.285156 33.421875 -19.734375 C 34.660156 -16.191406 35.28125 -12.644531 35.28125 -9.09375 C 35.28125 -7.78125 35.109375 -6.40625 34.765625 -4.96875 C 34.421875 -3.539062 33.800781 -2.351562 32.90625 -1.40625 C 32.019531 -0.46875 30.722656 0 29.015625 0 Z M 27.71875 -34.328125 L 41.203125 -34.328125 C 40.398438 -38.453125 39.507812 -42.554688 38.53125 -46.640625 C 37.5625 -50.734375 36.519531 -54.46875 35.40625 -57.84375 C 34.289062 -61.21875 33.144531 -63.921875 31.96875 -65.953125 C 30.800781 -67.984375 29.613281 -69 28.40625 -69 C 26.914062 -69 25.742188 -68.367188 24.890625 -67.109375 C 24.035156 -65.859375 23.421875 -64.21875 23.046875 -62.1875 C 22.671875 -60.15625 22.484375 -57.992188 22.484375 -55.703125 C 22.484375 -51.921875 23.007812 -48.253906 24.0625 -44.703125 C 25.125 -41.160156 26.34375 -37.703125 27.71875 -34.328125 Z M 27.71875 -34.328125 "/></g></g></g><g fill="#ffffff" fill-opacity="1"><g transform="translate(70.771925, 89.867452)"><g><path d="M 0 -85.828125 L 35.453125 -85.828125 C 34.472656 -84.742188 33.710938 -83.359375 33.171875 -81.671875 C 32.628906 -79.984375 32.359375 -78.25 32.359375 -76.46875 C 32.359375 -75.382812 32.515625 -73.5 32.828125 -70.8125 C 33.140625 -68.125 33.597656 -64.945312 34.203125 -61.28125 C 34.804688 -57.613281 35.503906 -53.765625 36.296875 -49.734375 C 37.097656 -45.703125 37.972656 -41.738281 38.921875 -37.84375 C 39.867188 -33.957031 40.882812 -30.425781 41.96875 -27.25 C 43.050781 -24.070312 44.164062 -21.539062 45.3125 -19.65625 C 46.457031 -17.769531 47.601562 -16.828125 48.75 -16.828125 C 50.238281 -16.828125 51.410156 -17.453125 52.265625 -18.703125 C 53.128906 -19.960938 53.742188 -21.609375 54.109375 -23.640625 C 54.484375 -25.671875 54.671875 -27.832031 54.671875 -30.125 C 54.671875 -33.5625 54.238281 -36.910156 53.375 -40.171875 C 52.519531 -43.429688 51.460938 -46.601562 50.203125 -49.6875 C 48.953125 -52.78125 47.679688 -55.828125 46.390625 -58.828125 C 45.097656 -61.835938 44.023438 -64.828125 43.171875 -67.796875 C 42.316406 -70.773438 41.890625 -73.753906 41.890625 -76.734375 C 41.890625 -78.109375 42.054688 -79.492188 42.390625 -80.890625 C 42.734375 -82.296875 43.363281 -83.46875 44.28125 -84.40625 C 45.195312 -85.351562 46.488281 -85.828125 48.15625 -85.828125 L 77.15625 -85.828125 C 75.382812 -84.398438 73.953125 -82.15625 72.859375 -79.09375 C 71.773438 -76.03125 70.691406 -72.722656 69.609375 -69.171875 C 67.890625 -63.335938 66.382812 -58.015625 65.09375 -53.203125 C 63.8125 -48.398438 62.671875 -43.722656 61.671875 -39.171875 C 60.671875 -34.628906 59.695312 -29.894531 58.75 -24.96875 C 57.800781 -20.050781 56.785156 -14.617188 55.703125 -8.671875 C 55.410156 -7.003906 55.421875 -5.367188 55.734375 -3.765625 C 56.054688 -2.171875 56.675781 -0.914062 57.59375 0 L 19.5625 0 C 20.539062 -0.914062 21.171875 -2.171875 21.453125 -3.765625 C 21.742188 -5.367188 21.742188 -7.003906 21.453125 -8.671875 C 20.367188 -14.617188 19.351562 -20.050781 18.40625 -24.96875 C 17.46875 -29.894531 16.492188 -34.628906 15.484375 -39.171875 C 14.484375 -43.722656 13.335938 -48.398438 12.046875 -53.203125 C 10.765625 -58.015625 9.265625 -63.335938 7.546875 -69.171875 C 6.460938 -72.722656 5.375 -76.03125 4.28125 -79.09375 C 3.195312 -82.15625 1.769531 -84.398438 0 -85.828125 Z M 0 -85.828125 "/></g></g></g></g></g><g transform="matrix(1, 0, 0, 1, 228, 25)"><g clip-path="url(#19cc5c3834)"><g fill="#ffffff" fill-opacity="1"><g transform="translate(0.106531, 72.080577)"><g><path d="M 2.171875 0 L 20.875 -50.734375 L 27.328125 -50.734375 L 45.953125 0 L 39.5 0 L 34.859375 -13.046875 L 13.265625 -13.046875 L 8.546875 0 Z M 15.078125 -17.96875 L 33.046875 -17.96875 L 24.0625 -43.0625 Z M 15.078125 -17.96875 "/></g></g></g><g fill="#ffffff" fill-opacity="1"><g transform="translate(33.954184, 72.080577)"><g><path d="M 20.65625 0 L 1.59375 -50.734375 L 8.1875 -50.734375 L 24.203125 -6.453125 L 40.375 -50.734375 L 46.828125 -50.734375 L 27.765625 0 Z M 20.65625 0 "/></g></g></g><g fill="#ffffff" fill-opacity="1"><g transform="translate(75.123313, 72.080577)"><g><path d="M 5.359375 0 L 5.359375 -50.734375 L 36.75 -50.734375 L 36.75 -45.734375 L 11.453125 -45.734375 L 11.453125 -28.046875 L 34.578125 -28.046875 L 34.578125 -23.125 L 11.453125 -23.125 L 11.453125 -5 L 36.75 -5 L 36.75 0 Z M 5.359375 0 "/></g></g></g><g fill="#ffffff" fill-opacity="1"><g transform="translate(108.754152, 72.080577)"><g><path d="M 5.359375 0 L 5.359375 -50.734375 L 11.453125 -50.734375 L 11.453125 -4.859375 L 35.078125 -4.859375 L 35.078125 0 Z M 5.359375 0 "/></g></g></g><g fill="#ffffff" fill-opacity="1"><g transform="translate(139.558114, 72.080577)"><g><path d="M 5.359375 0 L 5.359375 -50.734375 L 11.453125 -50.734375 L 11.453125 0 Z M 5.359375 0 "/></g></g></g><g fill="#ffffff" fill-opacity="1"><g transform="translate(149.124321, 72.080577)"><g><path d="M 28.40625 0.875 C 23.4375 0.875 19.078125 -0.222656 15.328125 -2.421875 C 11.585938 -4.617188 8.664062 -7.695312 6.5625 -11.65625 C 4.457031 -15.625 3.40625 -20.195312 3.40625 -25.375 C 3.40625 -30.539062 4.457031 -35.09375 6.5625 -39.03125 C 8.664062 -42.96875 11.585938 -46.046875 15.328125 -48.265625 C 19.078125 -50.492188 23.4375 -51.609375 28.40625 -51.609375 C 33.4375 -51.609375 37.820312 -50.492188 41.5625 -48.265625 C 45.3125 -46.046875 48.222656 -42.96875 50.296875 -39.03125 C 52.378906 -35.09375 53.421875 -30.539062 53.421875 -25.375 C 53.421875 -20.195312 52.378906 -15.625 50.296875 -11.65625 C 48.222656 -7.695312 45.3125 -4.617188 41.5625 -2.421875 C 37.820312 -0.222656 33.4375 0.875 28.40625 0.875 Z M 28.40625 -4.5 C 32.132812 -4.5 35.410156 -5.332031 38.234375 -7 C 41.054688 -8.664062 43.253906 -11.054688 44.828125 -14.171875 C 46.398438 -17.285156 47.1875 -21.019531 47.1875 -25.375 C 47.1875 -29.71875 46.398438 -33.4375 44.828125 -36.53125 C 43.253906 -39.625 41.054688 -42.003906 38.234375 -43.671875 C 35.410156 -45.335938 32.132812 -46.171875 28.40625 -46.171875 C 24.6875 -46.171875 21.414062 -45.335938 18.59375 -43.671875 C 15.769531 -42.003906 13.570312 -39.625 12 -36.53125 C 10.425781 -33.4375 9.640625 -29.71875 9.640625 -25.375 C 9.640625 -21.019531 10.425781 -17.285156 12 -14.171875 C 13.570312 -11.054688 15.769531 -8.664062 18.59375 -7 C 21.414062 -5.332031 24.6875 -4.5 28.40625 -4.5 Z M 28.40625 -4.5 "/></g></g></g><g fill="#ffffff" fill-opacity="1"><g transform="translate(198.701587, 72.080577)"><g><path d="M 5.359375 0 L 5.359375 -50.734375 L 11.453125 -50.734375 L 38.484375 -10.078125 L 38.484375 -50.734375 L 44.578125 -50.734375 L 44.578125 0 L 38.484375 0 L 11.453125 -40.65625 L 11.453125 0 Z M 5.359375 0 "/></g></g></g><g fill="#ffffff" fill-opacity="1"><g transform="translate(241.392924, 72.080577)"><g/></g></g><g fill="#ffffff" fill-opacity="1"><g transform="translate(253.351085, 72.080577)"><g><path d="M 5.359375 0 L 5.359375 -50.734375 L 20.953125 -50.734375 C 29.890625 -50.734375 36.472656 -48.460938 40.703125 -43.921875 C 44.929688 -39.378906 47.046875 -33.144531 47.046875 -25.21875 C 47.046875 -17.4375 44.929688 -11.285156 40.703125 -6.765625 C 36.472656 -2.253906 29.890625 0 20.953125 0 Z M 11.453125 -5.078125 L 20.796875 -5.078125 C 25.734375 -5.078125 29.660156 -5.882812 32.578125 -7.5 C 35.503906 -9.125 37.59375 -11.441406 38.84375 -14.453125 C 40.101562 -17.472656 40.734375 -21.0625 40.734375 -25.21875 C 40.734375 -29.476562 40.101562 -33.128906 38.84375 -36.171875 C 37.59375 -39.210938 35.503906 -41.554688 32.578125 -43.203125 C 29.660156 -44.847656 25.734375 -45.671875 20.796875 -45.671875 L 11.453125 -45.671875 Z M 11.453125 -5.078125 "/></g></g></g><g fill="#ffffff" fill-opacity="1"><g transform="translate(296.549791, 72.080577)"><g><path d="M 5.359375 0 L 5.359375 -50.734375 L 11.453125 -50.734375 L 11.453125 0 Z M 5.359375 0 "/></g></g></g><g fill="#ffffff" fill-opacity="1"><g transform="translate(306.115998, 72.080577)"><g><path d="M 27.1875 0.875 C 22.445312 0.875 18.285156 -0.222656 14.703125 -2.421875 C 11.128906 -4.617188 8.351562 -7.6875 6.375 -11.625 C 4.394531 -15.570312 3.40625 -20.128906 3.40625 -25.296875 C 3.40625 -30.460938 4.40625 -35.023438 6.40625 -38.984375 C 8.414062 -42.953125 11.269531 -46.046875 14.96875 -48.265625 C 18.664062 -50.492188 23.023438 -51.609375 28.046875 -51.609375 C 33.753906 -51.609375 38.503906 -50.226562 42.296875 -47.46875 C 46.085938 -44.71875 48.539062 -40.925781 49.65625 -36.09375 L 42.625 -36.09375 C 41.945312 -39.132812 40.335938 -41.550781 37.796875 -43.34375 C 35.265625 -45.132812 32.015625 -46.03125 28.046875 -46.03125 C 24.328125 -46.03125 21.085938 -45.195312 18.328125 -43.53125 C 15.578125 -41.863281 13.441406 -39.484375 11.921875 -36.390625 C 10.398438 -33.296875 9.640625 -29.597656 9.640625 -25.296875 C 9.640625 -20.992188 10.390625 -17.296875 11.890625 -14.203125 C 13.390625 -11.109375 15.46875 -8.726562 18.125 -7.0625 C 20.78125 -5.394531 23.875 -4.5625 27.40625 -4.5625 C 32.8125 -4.5625 36.890625 -6.144531 39.640625 -9.3125 C 42.398438 -12.476562 43.972656 -16.816406 44.359375 -22.328125 L 29.71875 -22.328125 L 29.71875 -27.109375 L 50.59375 -27.109375 L 50.59375 0 L 45.015625 0 L 44.5 -8.328125 C 42.664062 -5.390625 40.421875 -3.117188 37.765625 -1.515625 C 35.109375 0.078125 31.582031 0.875 27.1875 0.875 Z M 27.1875 0.875 "/></g></g></g><g fill="#ffffff" fill-opacity="1"><g transform="translate(353.736235, 72.080577)"><g><path d="M 5.359375 0 L 5.359375 -50.734375 L 11.453125 -50.734375 L 11.453125 0 Z M 5.359375 0 "/></g></g></g><g fill="#ffffff" fill-opacity="1"><g transform="translate(363.302442, 72.080577)"><g><path d="M 17.25 0 L 17.25 -45.734375 L 2.109375 -45.734375 L 2.109375 -50.734375 L 38.484375 -50.734375 L 38.484375 -45.734375 L 23.34375 -45.734375 L 23.34375 0 Z M 17.25 0 "/></g></g></g><g fill="#ffffff" fill-opacity="1"><g transform="translate(390.916631, 72.080577)"><g><path d="M 2.171875 0 L 20.875 -50.734375 L 27.328125 -50.734375 L 45.953125 0 L 39.5 0 L 34.859375 -13.046875 L 13.265625 -13.046875 L 8.546875 0 Z M 15.078125 -17.96875 L 33.046875 -17.96875 L 24.0625 -43.0625 Z M 15.078125 -17.96875 "/></g></g></g><g fill="#ffffff" fill-opacity="1"><g transform="translate(431.795827, 72.080577)"><g><path d="M 5.359375 0 L 5.359375 -50.734375 L 11.453125 -50.734375 L 11.453125 -4.859375 L 35.078125 -4.859375 L 35.078125 0 Z M 5.359375 0 "/></g></g></g></g></g></svg>